<?xml version="1.0" encoding="UTF-8"?>
<svg version="1.1" xmlns="http://www.w3.org/2000/svg" width="225" height="225">
<path d="M0 0 C74.25 0 148.5 0 225 0 C225 74.25 225 148.5 225 225 C150.75 225 76.5 225 0 225 C0 150.75 0 76.5 0 0 Z " fill="#FEFEFE" transform="translate(0,0)"/>
<path d="M0 0 C9.9 0 19.8 0 30 0 C35.62422523 13.49814056 35.62422523 13.49814056 37.38427734 18.21728516 C37.78174164 19.27944244 38.17920593 20.34159973 38.5887146 21.4359436 C39.00029816 22.54247284 39.41188171 23.64900208 39.8359375 24.7890625 C40.27837799 25.97237152 40.72081848 27.15568054 41.17666626 28.37484741 C42.34270666 31.4940716 43.50696154 34.61394827 44.67010498 37.73425293 C46.74332404 43.29526948 48.82015401 48.8549368 50.8984375 54.4140625 C51.5590921 56.1813974 51.5590921 56.1813974 52.23309326 57.98443604 C55.74283955 67.35457118 59.34214095 76.68687909 63 86 C63.31240631 85.15856445 63.62481262 84.31712891 63.94668579 83.45019531 C66.91721937 75.44949887 69.88800601 67.44889645 72.8590641 59.44839478 C74.38583315 55.33706607 75.91251051 51.22570337 77.43896484 47.11425781 C78.91708378 43.1330128 80.39546116 39.15186384 81.87400436 35.17077637 C82.43293497 33.6656829 82.99177851 32.16055709 83.55052567 30.65539551 C87.34676513 20.42926523 91.16552613 10.21186225 95 0 C104.9 0 114.8 0 125 0 C118.15949344 17.91059198 111.13763759 35.73111235 103.9375 53.5 C102.93592523 55.97640402 101.93452313 58.45287717 100.93334961 60.92944336 C98.43533806 67.10752468 95.93450823 73.2844609 93.4329834 79.46112061 C91.19612552 84.98523922 88.96140268 90.51022113 86.7265625 96.03515625 C82.82027182 105.6911436 78.9109819 115.34591179 75 125 C66.75 125 58.5 125 50 125 C42.04710335 106.05339328 34.17036864 87.0832958 26.58056641 67.98803711 C23.07717559 59.17728366 19.53886117 50.38161554 15.96875 41.59765625 C15.53673279 40.53367111 15.10471558 39.46968597 14.65960693 38.37345886 C12.06823475 31.99137861 12.06823475 31.99137861 9.46984863 25.6121521 C8.26319586 22.6541679 7.06092131 19.6944364 5.859375 16.734375 C5.49855835 15.8535878 5.1377417 14.9728006 4.76599121 14.06532288 C4.43039185 13.23649094 4.09479248 12.407659 3.74902344 11.55371094 C3.45815857 10.83987244 3.1672937 10.12603394 2.86761475 9.39056396 C1.75104066 6.31403514 0.89913029 3.146956 0 0 Z " fill="#4A4A4A" transform="translate(23,50)"/>
<path d="M0 0 C27.06 0 54.12 0 82 0 C82 7.92 82 15.84 82 24 C51.97 24 21.94 24 -9 24 C-6 14 -6 14 0 0 Z " fill="#057BC5" transform="translate(121,150)"/>
<path d="M0 0 C13.53 0 27.06 0 41 0 C41 7.92 41 15.84 41 24 C24.5 24 8 24 -9 24 C-3 7 -3 7 0 0 Z " fill="#CC3CD8" transform="translate(161,50)"/>
<path d="M0 0 C0.91644287 0.00523682 1.83288574 0.01047363 2.77709961 0.01586914 C3.66792236 0.0183667 4.55874512 0.02086426 5.4765625 0.0234375 C7.18573853 0.03709351 7.18573853 0.03709351 8.92944336 0.05102539 C14.34350586 0.08196289 14.34350586 0.08196289 19.86694336 0.11352539 C19.86694336 8.03352539 19.86694336 15.95352539 19.86694336 24.11352539 C9.63694336 24.11352539 -0.59305664 24.11352539 -11.13305664 24.11352539 C-10.00731289 17.35906288 -10.00731289 17.35906288 -8.53930664 13.84399414 C-8.2312207 13.10084961 -7.92313477 12.35770508 -7.60571289 11.59204102 C-7.28473633 10.83600586 -6.96375977 10.0799707 -6.63305664 9.30102539 C-6.1515918 8.13796875 -6.1515918 8.13796875 -5.66040039 6.95141602 C-2.81601079 0.14987353 -2.81601079 0.14987353 0 0 Z " fill="#FDC204" transform="translate(144.133056640625,98.886474609375)"/>
<path d="M0 0 C2.26598448 3.39897673 2.23742654 4.56319173 2.1953125 8.54296875 C2.18886719 9.61611328 2.18242187 10.68925781 2.17578125 11.79492188 C2.15902344 12.91447266 2.14226562 14.03402344 2.125 15.1875 C2.11597656 16.31865234 2.10695312 17.44980469 2.09765625 18.61523438 C2.07406862 21.41036828 2.041153 24.20507845 2 27 C1.01 26.67 0.02 26.34 -1 26 C-3.2825699 25.84854901 -5.56887706 25.75113021 -7.85546875 25.68359375 C-8.51710526 25.66281265 -9.17874176 25.64203156 -9.86042786 25.62062073 C-11.96934852 25.55535273 -14.07839135 25.49634656 -16.1875 25.4375 C-17.61915315 25.39429311 -19.05079404 25.35067812 -20.48242188 25.30664062 C-23.98815154 25.19969494 -27.49401786 25.09836359 -31 25 C-31 24.67 -31 24.34 -31 24 C-20.77 24 -10.54 24 0 24 C0 16.08 0 8.16 0 0 Z " fill="#FAF3C4" transform="translate(164,99)"/>
</svg>
